<?xml version="1.0" encoding="UTF-8"?>
<svg id="HIDE_THIS_LAYER_example_brand_" data-name="HIDE THIS LAYER (example brand)" xmlns="http://www.w3.org/2000/svg" viewBox="0 0 285.85 126.1">
  <defs>
    <style>
      .cls-1 {
        fill: #f0eded;
      }
    </style>
  </defs>
  <path class="cls-1" d="M248.3,36.76h-6.85c-.21,0-.41.1-.53.28l-2.24,3.28c-.12.17-.36.19-.5.04-2.96-3-7.43-4.8-13-4.8-12.4,0-22.06,9.59-22.06,21.62,0,9.44,6.64,16.01,17.49,16.01,3.45,0,6.63-.77,9.51-2.14.24-.12.51.1.45.37h0c-1.81,4.75-4.78,7.7-9.31,7.7h-91.93c-.3,0-.57.21-.63.51l-1.81,9.05c-.08.4.22.76.63.76h92.04c10.84,0,19.38-4.16,23.03-20.17h0s6.34-31.76,6.34-31.76c.08-.39-.22-.76-.63-.76ZM222.95,63.16c-5.09,0-8.04-2.95-8.04-7.01,0-5.76,5.09-10.55,11.59-10.55,5.09,0,8.04,2.95,8.04,7.01,0,5.76-5.09,10.55-11.59,10.55Z"/>
  <path class="cls-1" d="M67.35,75.57c10.62,0,17.71-5.61,17.71-13.73,0-7.67-6.86-9.44-12.17-10.85-3.32-.88-5.98-1.62-5.98-3.47,0-1.62,1.55-3.1,4.58-3.1,2.54,0,3.74,1.15,3.9,2.89.03.32.31.57.63.57h10.49c.33,0,.6-.24.64-.57.04-.3.06-.63.06-.98,0-5.53-4.72-10.77-15.05-10.77s-17.27,5.83-17.27,13.28c0,6.94,6.42,9.08,11.59,10.55,3.84,1.11,6.57,1.99,6.57,4.13,0,1.84-2.07,3.17-5.09,3.17-3.27,0-4.78-1.2-4.99-3.36-.03-.3-.33-.55-.63-.55h-10.64c-.33,0-.6.24-.64.57-.04.4-.08.84-.08,1.28,0,5.83,5.02,10.92,16.38,10.92Z"/>
  <path class="cls-1" d="M43.13,79.12l-2.08,10.33h-3.72c-.21,0-.36-.19-.32-.39l1.89-9.43c.06-.3.32-.51.63-.51h3.61Z"/>
  <path class="cls-1" d="M133.45,37.23l-22.13,36.1c-7.52,12.25-12.22,16.12-23.07,16.12h-42.38l2.08-10.33h42.01c4.53,0,6.21-1.79,8.9-6.12.04-.07.06-.26.04-.34l-8.02-35.28c-.04-.24.19-.65.54-.65h10.7c.32,0,.56.29.59.45l4.45,20.88c.06.29.45.35.6.1l12.6-21.12c.05-.11.28-.31.53-.31h12.28c.25,0,.41.28.28.5Z"/>
  <path class="cls-1" d="M130.47,74.39h10.21c.3,0,.57-.21.63-.51l3.59-17.93c1.55-7.01,5.39-10.03,9.81-10.03,3.17,0,5.17,1.7,5.17,5.39,0,.81-.08,1.7-.37,3.1l-3.83,19.23c-.08.39.22.76.63.76h10.21c.3,0,.57-.22.63-.51l4.25-21.33c.37-1.92.52-3.25.52-4.8,0-7.6-4.72-12.18-12.84-12.18-4.95,0-9.3,1.63-12.51,4.5-.19.17-.47.08-.54-.16l-.7-2.68c-.07-.28-.33-.48-.62-.48h-6.95c-.3,0-.57.21-.63.51l-7.27,36.35c-.08.4.22.76.63.76Z"/>
  <path class="cls-1" d="M172.69,74.39h10.21c.3,0,.57-.21.63-.51l3.66-18.16c1.25-5.39,4.06-7.89,9.15-7.89h5.16c.3,0,.57-.21.63-.51l1.96-9.79c.08-.4-.22-.76-.63-.76h-3.65c-4.5,0-8.2,1.14-10.97,3.49-.19.16-.47.08-.53-.16l-.77-2.86c-.08-.28-.33-.47-.62-.47h-6.96c-.3,0-.57.21-.63.51l-7.27,36.35c-.08.4.22.76.63.76Z"/>
</svg>