<?xml version="1.0" encoding="UTF-8"?>
<svg id="HIDE_THIS_LAYER_example_brand_" data-name="HIDE THIS LAYER (example brand)" xmlns="http://www.w3.org/2000/svg" viewBox="0 0 196.24 196.24">
  <defs>
    <style>
      .cls-1 {
        fill: #c4e9bf;
      }

      .cls-2 {
        fill: #f0eded;
      }
    </style>
  </defs>
  <path class="cls-1" d="M151.3,78.49c-2.57-6.91-6.39-13.15-11.34-18.56-5.13-5.6-11.26-10.06-18.23-13.24-6.96-3.19-14.35-4.91-21.94-5.13-7.33-.21-14.55.98-21.46,3.55-6.91,2.57-13.15,6.38-18.56,11.34-5.6,5.13-10.06,11.26-13.24,18.23-3.19,6.96-4.91,14.35-5.13,21.94-.21,7.33.98,14.55,3.55,21.46,2.57,6.91,6.39,13.15,11.34,18.56,5.13,5.6,11.26,10.05,18.21,13.24,0,0,0,0,.01,0,0,0,0,0,0,0,6.96,3.19,14.34,4.91,21.93,5.13.55.02,1.11.02,1.66.02,6.76,0,13.41-1.2,19.8-3.58,6.91-2.57,13.15-6.39,18.56-11.34,5.6-5.13,10.06-11.26,13.24-18.23,3.19-6.96,4.91-14.35,5.13-21.94.21-7.33-.98-14.55-3.55-21.46ZM48.25,116.84c-2.41-6.48-3.53-13.25-3.33-20.13.21-7.12,1.83-14.04,4.82-20.58,2.99-6.53,7.17-12.29,12.42-17.1,5.08-4.65,10.93-8.23,17.41-10.64,4.66-1.73,9.47-2.8,14.36-3.19.17-.01.21.22.05.27-2.67.85-5.32,1.96-7.94,3.33-5.84,3.05-11.25,7.24-16.07,12.45-4.97,5.37-9.1,11.61-12.26,18.53-.68,1.5-1.32,3.01-1.89,4.52-1.3,3.43-2.33,6.91-3.07,10.42-.45,2.14-.8,4.29-1.04,6.44-.79,7.05-.43,13.88,1.08,20.3.68,2.88,1.58,5.62,2.68,8.2.07.15-.14.27-.24.14-2.91-3.96-5.25-8.3-6.99-12.97ZM92.04,149.51h0c-.16.01-.21-.21-.06-.27,3.15-1.34,6.35-3.26,9.56-5.76,8.9-6.9,17.07-17.51,23.19-30.04.27-.55-.13-1.2-.75-1.2h-2.07c-.31,0-.6.18-.74.46-5.84,11.71-13.49,21.57-21.79,28-4.31,3.34-8.54,5.56-12.58,6.6-1.04.27-2.05.45-3.03.55-.14.01-.21-.17-.1-.25,2.64-1.94,5.56-4.87,8.67-8.74,5.33-6.61,10.86-15.43,15.97-25.41.28-.55-.12-1.21-.74-1.21h-2.08c-.31,0-.59.17-.74.45-4.88,9.42-10.11,17.72-15.15,23.96-3.12,3.87-6.09,6.81-8.58,8.51-1.04.71-2,1.2-2.83,1.47-.12.04-.22-.08-.17-.19l15.11-33.02c.25-.55-.15-1.18-.75-1.18h-2.04c-.32,0-.62.19-.75.48l-14.76,32.25c-.05.11-.21.11-.26,0-.35-.8-.6-1.85-.74-3.11-.34-3-.06-7.17.83-12.06.9-4.98,2.38-10.56,4.33-16.48.18-.54-.22-1.09-.79-1.09h-1.95c-.36,0-.68.23-.79.57-1.91,5.86-3.36,11.4-4.26,16.37-.89,4.89-1.2,9.01-.94,12.28.01.14-.17.21-.25.09-.57-.81-1.09-1.7-1.57-2.66-1.85-3.73-2.94-8.38-3.23-13.83-.2-3.77-.01-7.76.55-11.89.07-.5-.32-.94-.82-.94h-1.86c-.42,0-.77.31-.82.72-.56,4.26-.75,8.39-.54,12.3.22,4.07.85,7.75,1.9,11,.05.15-.15.25-.25.13h0c-3.32-4.45-5.72-9.74-7.13-15.72-.64-2.73-1.06-5.55-1.26-8.43-.24-3.47-.16-7.04.25-10.67.66-5.84,2.13-11.63,4.39-17.26.41-1.03.85-2.05,1.32-3.06,3.01-6.58,6.93-12.5,11.65-17.6,4.54-4.91,9.63-8.85,15.11-11.72,5.45-2.85,11.02-4.49,16.55-4.87h0c.16-.01.21.21.06.27-3.15,1.34-6.35,3.26-9.56,5.76-8.9,6.91-17.08,17.51-23.19,30.04-.27.55.13,1.2.75,1.2h2.07c.31,0,.6-.18.74-.46,5.84-11.71,13.49-21.57,21.79-28,4.31-3.34,8.54-5.56,12.58-6.6,1.04-.27,2.05-.45,3.03-.55.14-.01.21.17.1.25-2.64,1.94-5.56,4.87-8.67,8.74-5.33,6.61-10.87,15.43-15.97,25.41-.28.55.12,1.21.74,1.21h2.08c.31,0,.59-.17.74-.45,4.88-9.42,10.11-17.72,15.15-23.96,3.12-3.87,6.09-6.81,8.58-8.51,1.04-.71,2-1.2,2.83-1.47.12-.04.22.08.17.19l-15.11,33.02c-.25.55.15,1.18.75,1.18h2.04c.32,0,.62-.19.75-.48l14.76-32.25c.05-.11.21-.11.26,0,.35.8.6,1.85.74,3.1.34,3,.06,7.17-.83,12.06-.9,4.98-2.38,10.57-4.33,16.48-.18.54.22,1.09.79,1.09h1.95c.36,0,.68-.23.79-.57,1.91-5.86,3.36-11.4,4.26-16.37.89-4.89,1.2-9.01.94-12.28-.01-.14.17-.21.25-.09.57.81,1.09,1.7,1.57,2.66,1.85,3.73,2.94,8.38,3.23,13.83.2,3.77.01,7.76-.55,11.89-.07.5.32.94.82.94h1.87c.42,0,.77-.31.82-.72.56-4.26.75-8.39.54-12.3-.22-4.07-.85-7.75-1.9-11-.05-.15.15-.25.25-.13h0c3.32,4.45,5.72,9.73,7.13,15.72.64,2.73,1.06,5.55,1.26,8.43.24,3.47.16,7.04-.25,10.67-.66,5.84-2.13,11.63-4.39,17.26-.41,1.03-.85,2.05-1.32,3.06-1.51,3.29-3.24,6.42-5.18,9.36-1.95,2.94-4.1,5.7-6.46,8.25-4.54,4.91-9.63,8.85-15.11,11.72-5.45,2.85-11.02,4.49-16.55,4.87ZM151.34,99.85c-.21,7.12-1.83,14.04-4.82,20.58-2.99,6.53-7.17,12.29-12.42,17.1-5.08,4.65-10.93,8.23-17.41,10.64-4.66,1.74-9.48,2.8-14.38,3.19-.17.01-.21-.22-.05-.27,2.67-.85,5.32-1.96,7.95-3.33,5.84-3.05,11.25-7.24,16.07-12.45,4.97-5.37,9.1-11.61,12.26-18.53.68-1.5,1.31-3,1.89-4.53,1.3-3.43,2.33-6.91,3.07-10.42.45-2.14.8-4.29,1.04-6.44.79-7.05.43-13.88-1.08-20.3-.68-2.88-1.57-5.62-2.68-8.2-.07-.15.14-.27.24-.14,2.91,3.96,5.25,8.31,6.99,12.97,2.41,6.48,3.53,13.25,3.33,20.13Z"/>
  <g>
    <path class="cls-2" d="M138.46,88.42h-2.62c-.08,0-.16.04-.2.11l-.86,1.26c-.04.07-.14.07-.19.02-1.13-1.15-2.84-1.84-4.98-1.84-4.75,0-8.45,3.67-8.45,8.28,0,3.62,2.54,6.13,6.7,6.13,1.32,0,2.54-.3,3.64-.82.09-.04.2.04.17.14h0c-.69,1.82-1.83,2.95-3.56,2.95h-35.2c-.12,0-.22.08-.24.2l-.69,3.47c-.03.15.09.29.24.29h35.25c4.15,0,7.42-1.59,8.82-7.72h0s2.43-12.16,2.43-12.16c.03-.15-.09-.29-.24-.29ZM128.76,98.53c-1.95,0-3.08-1.13-3.08-2.68,0-2.2,1.95-4.04,4.44-4.04,1.95,0,3.08,1.13,3.08,2.68,0,2.2-1.95,4.04-4.44,4.04Z"/>
    <path class="cls-2" d="M69.17,103.28c4.07,0,6.78-2.15,6.78-5.26,0-2.94-2.63-3.62-4.66-4.15-1.27-.34-2.29-.62-2.29-1.33,0-.62.59-1.19,1.75-1.19.97,0,1.43.44,1.49,1.11.01.12.12.22.24.22h4.02c.13,0,.23-.09.24-.22.01-.12.02-.24.02-.38,0-2.12-1.81-4.13-5.76-4.13s-6.61,2.23-6.61,5.09c0,2.66,2.46,3.48,4.44,4.04,1.47.42,2.51.76,2.51,1.58,0,.71-.79,1.22-1.95,1.22-1.25,0-1.83-.46-1.91-1.29-.01-.12-.12-.21-.24-.21h-4.07c-.13,0-.23.09-.24.22-.02.15-.03.32-.03.49,0,2.23,1.92,4.18,6.27,4.18Z"/>
    <path class="cls-2" d="M59.9,104.64l-.8,3.96h-1.43c-.08,0-.14-.07-.12-.15l.72-3.61c.02-.11.12-.2.24-.2h1.38Z"/>
    <path class="cls-2" d="M94.49,88.6l-8.47,13.82c-2.88,4.69-4.68,6.17-8.83,6.17h-16.23l.8-3.96h16.09c1.74,0,2.38-.68,3.41-2.34.02-.03.02-.1.01-.13l-3.07-13.51c-.02-.09.07-.25.21-.25h4.1c.12,0,.21.11.23.17l1.7,7.99c.02.11.17.14.23.04l4.82-8.09s.11-.12.2-.12h4.7c.1,0,.16.11.11.19Z"/>
    <path class="cls-2" d="M93.34,102.83h3.91c.12,0,.22-.08.24-.2l1.37-6.87c.59-2.68,2.06-3.84,3.76-3.84,1.22,0,1.98.65,1.98,2.06,0,.31-.03.65-.14,1.19l-1.47,7.36c-.03.15.09.29.24.29h3.91c.12,0,.22-.08.24-.2l1.63-8.17c.14-.73.2-1.24.2-1.84,0-2.91-1.81-4.66-4.92-4.66-1.9,0-3.56.62-4.79,1.72-.07.06-.18.03-.21-.06l-.27-1.03c-.03-.11-.13-.18-.24-.18h-2.66c-.12,0-.22.08-.24.2l-2.78,13.92c-.03.15.09.29.24.29Z"/>
    <path class="cls-2" d="M109.51,102.83h3.91c.12,0,.22-.08.24-.2l1.4-6.95c.48-2.06,1.55-3.02,3.5-3.02h1.97c.12,0,.22-.08.24-.2l.75-3.75c.03-.15-.09-.29-.24-.29h-1.4c-1.73,0-3.14.44-4.2,1.34-.07.06-.18.03-.2-.06l-.29-1.09c-.03-.11-.13-.18-.24-.18h-2.66c-.12,0-.22.08-.24.2l-2.78,13.92c-.03.15.09.29.24.29Z"/>
  </g>
</svg>