<?xml version="1.0" encoding="UTF-8"?>
<svg id="HIDE_THIS_LAYER_example_brand_" data-name="HIDE THIS LAYER (example brand)" xmlns="http://www.w3.org/2000/svg" viewBox="0 0 319.3 163.09">
  <defs>
    <style>
      .cls-1 {
        fill: #c4e9bf;
      }

      .cls-2 {
        fill: #f0eded;
      }
    </style>
  </defs>
  <path class="cls-2" d="M277.47,41.1h-7.66c-.24,0-.46.12-.59.31l-2.51,3.66c-.13.19-.4.22-.56.05-3.31-3.35-8.3-5.36-14.53-5.36-13.86,0-24.66,10.72-24.66,24.17,0,10.56,7.42,17.9,19.55,17.9,3.85,0,7.42-.86,10.63-2.39.27-.13.57.12.51.41h0c-2.03,5.3-5.35,8.6-10.4,8.6h-102.76c-.34,0-.63.24-.7.57l-2.03,10.12c-.09.44.25.85.7.85h102.88c12.12,0,21.66-4.65,25.74-22.54h0s7.09-35.5,7.09-35.5c.09-.44-.25-.85-.7-.85ZM249.14,70.6c-5.69,0-8.99-3.3-8.99-7.83,0-6.43,5.69-11.8,12.95-11.8,5.69,0,8.99,3.3,8.99,7.84,0,6.43-5.69,11.79-12.95,11.79Z"/>
  <path class="cls-2" d="M75.21,84.48c11.88,0,19.79-6.27,19.79-15.34,0-8.58-7.67-10.56-13.61-12.12-3.71-.99-6.68-1.81-6.68-3.88,0-1.81,1.73-3.46,5.11-3.46,2.83,0,4.18,1.28,4.36,3.23.03.35.35.64.7.64h11.72c.37,0,.67-.27.71-.63.04-.34.07-.7.07-1.1,0-6.19-5.28-12.04-16.83-12.04s-19.3,6.52-19.3,14.85c0,7.75,7.17,10.14,12.95,11.79,4.29,1.24,7.34,2.23,7.34,4.62,0,2.06-2.31,3.55-5.69,3.55-3.66,0-5.35-1.34-5.58-3.76-.03-.34-.36-.61-.71-.61h-11.89c-.37,0-.67.27-.71.64-.05.44-.09.94-.09,1.43,0,6.52,5.61,12.21,18.31,12.21Z"/>
  <path class="cls-2" d="M48.13,88.44l-2.33,11.55h-4.16c-.23,0-.4-.21-.36-.44l2.11-10.54c.07-.33.36-.57.7-.57h4.04Z"/>
  <path class="cls-2" d="M149.09,41.62l-24.73,40.35c-8.41,13.69-13.66,18.02-25.79,18.02h-47.37l2.32-11.55h46.95c5.06,0,6.95-2,9.95-6.84.05-.08.07-.29.04-.38l-8.96-39.44c-.05-.26.21-.73.61-.73h11.96c.36,0,.62.32.66.51l4.97,23.33c.07.33.5.4.67.11l14.08-23.61c.05-.12.32-.34.59-.34h13.73c.28,0,.46.31.31.56Z"/>
  <path class="cls-2" d="M145.76,83.16h11.41c.34,0,.63-.24.7-.57l4.01-20.05c1.73-7.84,6.02-11.22,10.97-11.22,3.55,0,5.78,1.9,5.78,6.02,0,.91-.08,1.9-.41,3.46l-4.28,21.5c-.09.44.25.85.7.85h11.41c.34,0,.63-.24.7-.57l4.75-23.84c.41-2.14.58-3.63.58-5.36,0-8.5-5.28-13.61-14.35-13.61-5.54,0-10.39,1.82-13.99,5.03-.21.18-.53.09-.6-.18l-.78-3c-.08-.31-.37-.53-.69-.53h-7.77c-.34,0-.63.24-.7.57l-8.13,40.64c-.09.44.25.85.7.85Z"/>
  <path class="cls-2" d="M192.96,83.16h11.41c.34,0,.63-.24.7-.57l4.09-20.3c1.4-6.02,4.54-8.82,10.23-8.82h5.76c.34,0,.63-.24.7-.57l2.19-10.95c.09-.44-.25-.85-.7-.85h-4.08c-5.04,0-9.17,1.28-12.26,3.9-.21.18-.52.09-.59-.18l-.86-3.19c-.08-.31-.37-.53-.69-.53h-7.78c-.34,0-.63.24-.7.57l-8.13,40.64c-.09.44.25.85.7.85Z"/>
  <g>
    <path class="cls-1" d="M140.42,117.1l-.65.98h-1.88l2.56-12.81h2.74l-.85,4.25c.71-.38,1.55-.61,2.46-.61,2.49,0,4.06,1.55,4.06,3.9,0,3.1-2.3,5.54-5.33,5.54-1.32,0-2.39-.45-3.1-1.25ZM143.22,115.91c1.53,0,2.84-1.24,2.84-2.77,0-1.05-.75-1.8-1.94-1.8-1.53,0-2.84,1.24-2.84,2.77,0,1.05.75,1.8,1.94,1.8Z"/>
    <path class="cls-1" d="M149.82,114.31c0-2.91,2.47-5.4,5.63-5.4,2.77,0,4.36,1.78,4.36,3.77,0,.66-.14,1.29-.33,1.76h-6.95c0,1.15.66,1.72,1.85,1.72.87,0,1.55-.33,1.95-.84h2.84c-.82,1.76-2.65,3.03-4.91,3.03-2.75,0-4.43-1.64-4.43-4.04ZM157.08,112.65c-.09-1.03-.7-1.55-1.76-1.55s-1.94.64-2.39,1.55h4.15Z"/>
    <path class="cls-1" d="M159.34,118.99h.91c1.08,0,1.47-.23,2.11-1.27l-1.94-8.54h2.81l1.12,5.23,3.12-5.23h3.12l-5.3,8.64c-1.78,2.89-2.88,3.61-5.44,3.61h-.99l.49-2.44Z"/>
    <path class="cls-1" d="M169.6,114.29c0-2.88,2.54-5.39,5.78-5.39,2.75,0,4.43,1.66,4.43,4.04,0,2.89-2.53,5.4-5.79,5.4-2.74,0-4.43-1.66-4.43-4.06ZM174.25,115.91c1.59,0,2.79-1.31,2.79-2.79,0-1.06-.71-1.78-1.88-1.78-1.59,0-2.79,1.31-2.79,2.79,0,1.06.72,1.78,1.88,1.78Z"/>
    <path class="cls-1" d="M187.52,112.62c0-.87-.47-1.27-1.22-1.27-1.05,0-1.95.72-2.32,2.37l-.87,4.36h-2.72l1.78-8.89h1.88l.23.87c.77-.73,1.83-1.15,3.05-1.15,1.92,0,3.03,1.08,3.03,2.88,0,.37-.04.68-.12,1.13l-1.03,5.16h-2.72l.94-4.72c.07-.33.09-.54.09-.73Z"/>
    <path class="cls-1" d="M198.78,118.07l-.19-.7c-.84.61-1.88.98-3.05.98-2.49,0-4.06-1.55-4.06-3.9,0-3.1,2.3-5.54,5.33-5.54,1.12,0,2.08.33,2.77.93l.91-4.53h2.74l-2.56,12.77h-1.88ZM196.2,115.91c1.54,0,2.84-1.24,2.84-2.77,0-1.05-.75-1.8-1.93-1.8-1.54,0-2.84,1.24-2.84,2.77,0,1.05.75,1.8,1.93,1.8Z"/>
    <path class="cls-1" d="M212.78,105.3h2.06l-.49,2.37h-1.43c-.63,0-.96.24-1.1.96l-.11.56h2.35l-.47,2.37h-2.37l-1.29,6.52h-2.72l1.31-6.52h-1.74l.47-2.37h1.74l.16-.82c.44-2.16,1.34-3.07,3.62-3.07Z"/>
    <path class="cls-1" d="M215.15,109.19h2.72l-1.78,8.89h-2.72l1.78-8.89ZM215.93,105.3h2.72l-.51,2.49h-2.72l.51-2.49Z"/>
    <path class="cls-1" d="M219.59,115.34c0-.33.04-.68.11-1.06l.54-2.72h-1.74l.47-2.37h1.83l.84-2.2h2.23l-.44,2.2h2.7l-.47,2.37h-2.72l-.51,2.56c-.05.26-.09.45-.09.61,0,.61.38.91,1.17.91h1.34l-.49,2.44h-1.55c-2.13,0-3.22-.94-3.22-2.74Z"/>
    <path class="cls-1" d="M233,112.62c0-.87-.47-1.27-1.22-1.27-1.05,0-1.95.72-2.32,2.37l-.87,4.36h-2.72l1.78-8.89h1.88l.23.87c.77-.73,1.83-1.15,3.05-1.15,1.92,0,3.03,1.08,3.03,2.88,0,.37-.04.68-.12,1.13l-1.03,5.16h-2.72l.94-4.72c.07-.33.09-.54.09-.73Z"/>
    <path class="cls-1" d="M236.96,114.31c0-2.91,2.47-5.4,5.63-5.4,2.77,0,4.36,1.78,4.36,3.77,0,.66-.14,1.29-.33,1.76h-6.95c0,1.15.66,1.72,1.85,1.72.87,0,1.55-.33,1.95-.84h2.84c-.82,1.76-2.65,3.03-4.91,3.03-2.75,0-4.43-1.64-4.43-4.04ZM244.23,112.65c-.09-1.03-.7-1.55-1.76-1.55s-1.94.64-2.39,1.55h4.15Z"/>
    <path class="cls-1" d="M247.48,115.77c0-.16.02-.31.03-.44h2.79c0,.59.35.92,1.19.92.72,0,1.2-.31,1.2-.75,0-.51-.65-.72-1.55-.98-1.22-.35-2.74-.85-2.74-2.49,0-1.76,1.67-3.14,4.08-3.14s3.55,1.24,3.55,2.55c0,.14-.02.26-.04.37h-2.75c.02-.49-.26-.82-.92-.82-.72,0-1.08.35-1.08.73,0,.44.63.61,1.41.82,1.26.33,2.88.75,2.88,2.56,0,1.92-1.67,3.24-4.18,3.24-2.69,0-3.87-1.2-3.87-2.58Z"/>
    <path class="cls-1" d="M256.48,115.77c0-.16.02-.31.03-.44h2.79c0,.59.35.92,1.19.92.72,0,1.2-.31,1.2-.75,0-.51-.65-.72-1.55-.98-1.22-.35-2.74-.85-2.74-2.49,0-1.76,1.67-3.14,4.08-3.14s3.55,1.24,3.55,2.55c0,.14-.02.26-.04.37h-2.75c.02-.49-.26-.82-.92-.82-.72,0-1.08.35-1.08.73,0,.44.63.61,1.41.82,1.26.33,2.88.75,2.88,2.56,0,1.92-1.67,3.24-4.18,3.24-2.69,0-3.87-1.2-3.87-2.58Z"/>
  </g>
</svg>